<?xml version="1.0" encoding="utf-8"?>
<!-- Generator: Adobe Illustrator 16.0.0, SVG Export Plug-In . SVG Version: 6.00 Build 0)  -->
<!DOCTYPE svg PUBLIC "-//W3C//DTD SVG 1.1//EN" "http://www.w3.org/Graphics/SVG/1.1/DTD/svg11.dtd">
<svg version="1.1" id="Layer_1" xmlns="http://www.w3.org/2000/svg" xmlns:xlink="http://www.w3.org/1999/xlink" x="0px" y="0px"
	 width="100%" viewBox="0 0 549.415 465.492" enable-background="new 0 0 549.415 465.492"
	 xml:space="preserve">
<g>
	<g>
		<rect x="2.844" y="161.08" fill="#DA6727" width="24.159" height="31.675"/>
	</g>
</g>
<g>
	<g>
		<rect x="2.844" y="123.653" fill="#36478A" width="67.227" height="31.675"/>
	</g>
</g>
<rect x="2.375" y="95.787" fill="none" width="231.132" height="28.991"/>
<text transform="matrix(1 0 0 1 2.3755 105.8525)" fill="#231F20" font-family="'Helvetica'" font-size="14">At-large commission seats</text>
<rect x="255.43" y="78.464" fill="none" width="225.249" height="46.314"/>
<text transform="matrix(1 0 0 1 255.4302 105.9121)" fill="#231F20" font-family="'Helvetica'" font-size="14">Single-member-district seats</text>
<text transform="matrix(1 0 0 1 74.5459 137.3838)"><tspan x="0" y="0" fill="#231F20" font-family="'Helvetica'" font-size="14">Voters:  </tspan><tspan x="0" y="13.906" fill="#231F20" font-family="'Helvetica'" font-size="14">28% black</tspan></text>
<rect x="32.83" y="148.892" fill="none" width="118.327" height="39.935"/>
<text transform="matrix(1 0 0 1 32.8296 172.8633)"><tspan x="0" y="0" fill="#231F20" font-family="'Helvetica'" font-size="14">Commissioners: </tspan><tspan x="0" y="13.906" fill="#231F20" font-family="'Helvetica'" font-size="14">8% black</tspan></text>
<line fill="none" stroke="#000000" stroke-width="0.75" stroke-miterlimit="10" x1="2.375" y1="113.363" x2="2.375" y2="201.48"/>
<g>
	<g>
		<rect x="260.101" y="161.08" fill="#DA6727" width="63.269" height="31.675"/>
	</g>
</g>
<g>
	<g>
		<rect x="260.101" y="123.653" fill="#36478A" width="72.92" height="31.675"/>
	</g>
</g>
<text transform="matrix(1 0 0 1 338.6577 137.3838)"><tspan x="0" y="0" fill="#231F20" font-family="'Helvetica'" font-size="14">Voters:  </tspan><tspan x="0" y="13.906" fill="#231F20" font-family="'Helvetica'" font-size="14">32% black</tspan></text>
<rect x="328.228" y="148.892" fill="none" width="118.329" height="44.059"/>
<text transform="matrix(1 0 0 1 328.228 172.8633)"><tspan x="0" y="0" fill="#231F20" font-family="'Helvetica'" font-size="14">Commissioners: </tspan><tspan x="0" y="13.906" fill="#231F20" font-family="'Helvetica'" font-size="14">28% black</tspan></text>
<line fill="none" stroke="#000000" stroke-width="0.75" stroke-miterlimit="10" x1="259.633" y1="113.363" x2="259.633" y2="201.48"/>
<rect x="2.375" y="224.075" fill="none" width="478.304" height="52.407"/>
<text transform="matrix(1 0 0 1 2.3755 236.2979)"><tspan x="0" y="0" fill="#231F20" font-family="'Helvetica'" font-size="17">VOTERS AND THEIR COMMISSIONERS</tspan><tspan x="0" y="17.383" fill="#231F20" font-family="'Helvetica'" font-size="14">White voters make up a majority in Georgia.  They make up a larger majority </tspan><tspan x="0" y="34.765" fill="#231F20" font-family="'Helvetica'" font-size="14">of county commission seats in the state.</tspan></text>
<g>
	<g>
		<rect x="2.375" y="287.862" fill="#DA6727" width="20.859" height="20.858"/>
	</g>
</g>
<g>
	<g>
		<rect x="129.164" y="287.862" fill="#36478A" width="20.858" height="20.858"/>
	</g>
</g>
<g>
	<g>
		<rect x="255.953" y="287.862" fill="#AEBCE0" width="20.859" height="20.858"/>
	</g>
</g>
<g>
	<g>
		<rect x="382.743" y="287.862" fill="#D0D2D3" width="20.857" height="20.858"/>
	</g>
</g>
<rect x="31.36" y="291.215" fill="none" width="43.571" height="14.156"/>
<text transform="matrix(1 0 0 1 31.3604 301.2812)" fill="#231F20" font-family="'Helvetica'" font-size="14">White</text>
<rect x="160.88" y="291.215" fill="none" width="38.271" height="14.156"/>
<text transform="matrix(1 0 0 1 160.8804 301.2812)" fill="#231F20" font-family="'Helvetica'" font-size="14">Black</text>
<rect x="285.825" y="291.215" fill="none" width="60.959" height="14.156"/>
<text transform="matrix(1 0 0 1 285.8247 301.2812)" fill="#231F20" font-family="'Helvetica'" font-size="14">Hispanic</text>
<rect x="415.899" y="291.215" fill="none" width="40.785" height="14.156"/>
<text transform="matrix(1 0 0 1 415.8989 301.2812)" fill="#231F20" font-family="'Helvetica'" font-size="14">Other</text>
<rect x="2.375" y="323.428" fill="none" width="151.165" height="14.159"/>
<text transform="matrix(1 0 0 1 2.3755 333.4941)" fill="#231F20" font-family="'Helvetica'" font-size="14">Active voters</text>
<rect x="2.375" y="402.735" fill="none" width="178.556" height="14.157"/>
<text transform="matrix(1 0 0 1 2.3755 412.8008)" fill="#231F20" font-family="'Helvetica'" font-size="14">County commissioners</text>
<g>
	<g>
		<rect x="439.013" y="345.27" fill="#D0D2D3" width="43.184" height="31.676"/>
	</g>
</g>
<g>
	<g>
		<rect x="429.415" y="345.27" fill="#AEBCE0" width="9.599" height="31.676"/>
	</g>
</g>
<g>
	<g>
		<rect x="285.468" y="345.27" fill="#36478A" width="143.946" height="31.676"/>
	</g>
</g>
<g>
	<g>
		<rect x="2.375" y="345.27" fill="#DA6727" width="283.093" height="31.676"/>
	</g>
</g>
<line fill="none" stroke="#000000" stroke-width="0.75" stroke-miterlimit="10" x1="2.375" y1="336.184" x2="2.375" y2="386.029"/>
<rect x="127.938" y="354.027" fill="none" width="38.752" height="14.157"/>
<text transform="matrix(1 0 0 1 133.3037 364.0938)" fill="#FFFFFF" font-family="'Helvetica'" font-size="14">59%</text>
<rect x="337.395" y="354.027" fill="none" width="43.57" height="14.157"/>
<text transform="matrix(1 0 0 1 337.395 364.0938)" fill="#FFFFFF" font-family="'Helvetica'" font-size="14">30%</text>
<rect x="429.416" y="331.113" fill="none" width="43.57" height="14.156"/>
<text transform="matrix(1 0 0 1 429.4155 341.1797)" fill="#231F20" font-family="'Helvetica'" font-size="14">2%</text>
<rect x="445.11" y="354.027" fill="none" width="30.268" height="14.157"/>
<text transform="matrix(1 0 0 1 445.1099 364.0938)" fill="#231F20" font-family="'Helvetica'" font-size="14">9%</text>
<g>
	<g>
		<rect x="374.149" y="424.732" fill="#36478A" width="108.048" height="31.675"/>
	</g>
</g>
<g>
	<g>
		<rect x="2.375" y="424.732" fill="#DA6727" width="371.774" height="31.675"/>
	</g>
</g>
<line fill="none" stroke="#000000" stroke-width="0.75" stroke-miterlimit="10" x1="2.375" y1="415.646" x2="2.375" y2="465.492"/>
<rect x="171.395" y="433.491" fill="none" width="38.75" height="14.156"/>
<text transform="matrix(1 0 0 1 176.7603 443.5566)" fill="#FFFFFF" font-family="'Helvetica'" font-size="14">77%</text>
<rect x="408.661" y="433.491" fill="none" width="43.572" height="14.156"/>
<text transform="matrix(1 0 0 1 408.6606 443.5566)" fill="#FFFFFF" font-family="'Helvetica'" font-size="14">23%</text>
<rect x="2" y="11.172" fill="none" width="484.354" height="72.292"/>
<text transform="matrix(1 0 0 1 2 23.3945)"><tspan x="0" y="0" fill="#231F20" font-family="'Helvetica'" font-size="17">THE DIFFERENCE IN THE DISTRICTS</tspan><tspan x="0" y="17.452" fill="#231F20" font-family="'Helvetica'" font-size="14">African-Americans are underrepresented on county commissions across </tspan><tspan x="0" y="34.904" fill="#231F20" font-family="'Helvetica'" font-size="14">Georgia.  But on the whole, they are more under-represented where counties </tspan><tspan x="0" y="52.356" fill="#231F20" font-family="'Helvetica'" font-size="14">elect commission members in &quot;at-large&quot; countywide votes.</tspan></text>
</svg>
